PathFileType	4	(X/Y/Z)	Walk7.trc
DataRate	CameraRate	NumFrames	NumMarkers	Units	OrigDataRate	OrigDataStartFrame	OrigNumFrames
200.000000	200.000000	9	59	mm	200.000000	243	590
Frame#	Times		LFHD		RFHD		CLAV		STRN		LASI		RASI		RACR1		RUA1		RElbow		RFA1		RWRR		RWRU		RCAR		LACR1		LUA1		LElbow		LFA1		LWRR		LCAR		RTH3		RTH2		RTB1		RTB2		RTB4		LTH1		LTH3		LTH2		LTH4		LLFC		LTB1		LTB2		LTB4		LMT1		LToe		LWRU		LMT5		LTB3		RTB3		LMFC		RMT1		RMMAL		RElbowM		RLFC		RToe		RBHD		RTH4		RTH1		RCAL		RBack		RMFC		RPSI		LLMAL		C7		LPSI		T10		LMMAL		LBHD		LCAL		LElbowM
			X1	Y1	Z1	X2	Y2	Z2	X3	Y3	Z3	X4	Y4	Z4	X5	Y5	Z5	X6	Y6	Z6	X7	Y7	Z7	X8	Y8	Z8	X9	Y9	Z9	X10	Y10	Z10	X11	Y11	Z11	X12	Y12	Z12	X13	Y13	Z13	X14	Y14	Z14	X15	Y15	Z15	X16	Y16	Z16	X17	Y17	Z17	X18	Y18	Z18	X19	Y19	Z19	X20	Y20	Z20	X21	Y21	Z21	X22	Y22	Z22	X23	Y23	Z23	X24	Y24	Z24	X25	Y25	Z25	X26	Y26	Z26	X27	Y27	Z27	X28	Y28	Z28	X29	Y29	Z29	X30	Y30	Z30	X31	Y31	Z31	X32	Y32	Z32	X33	Y33	Z33	X34	Y34	Z34	X35	Y35	Z35	X36	Y36	Z36	X37	Y37	Z37	X38	Y38	Z38	X39	Y39	Z39	X40	Y40	Z40	X41	Y41	Z41	X42	Y42	Z42	X43	Y43	Z43	X44	Y44	Z44	X45	Y45	Z45	X46	Y46	Z46	X47	Y47	Z47	X48	Y48	Z48	X49	Y49	Z49	X50	Y50	Z50	X51	Y51	Z51	X52	Y52	Z52	X53	Y53	Z53	X54	Y54	Z54	X55	Y55	Z55	X56	Y56	Z56	X57	Y57	Z57	X58	Y58	Z58	X59	Y59	Z59

243	1.215	-546.88	1635.4	49.683	-538.59	1628.2	-49.628	-543.04	1373.4	19.49	-476.89	1216.4	27.818	-564.36	953.64	-152.75	-616.11	967.13	215.59	-680.29	1458	174.55	-689.56	1292.4	297.22	-652.02	1158.1	363.09	-553.04	1048.1	372.12	-469.54	966.66	298.13	-480.78	960.36	379.47	-405.96	911.26	346.23	-641.93	1438.7	-174.42	-706.82	1277.4	-262.58	-759.12	1120.2	-308.27	-770.31	979.25	-317.62	-752.58	848.52	-253.32	-773.08	756.9	-277.21	-783.92	591.32	192.02	-711.86	667.3	199.73	-813.47	345.57	99.503	-880.89	275.95	141.41	-857.23	271.64	85.164	-563.13	741.58	-182.89	-491.08	588.69	-151.65	-478.18	693	-147.58	-528.51	665.68	-167.78	-478.45	506.7	-147.96	-368.34	423.75	-93.19	-370.74	324.92	-127.5	-340.16	345.85	-77.631	-174.33	109.14	-56.017	-135.59	129.02	-99.546	-799.37	840.64	-311.73	-223.6	63.13	-120.74	-318.04	262.46	-62.617	-900.44	198.5	70.314	-454.3	509.51	7.8724	-885.67	24.331	44.222	-991.31	97.019	-1.471	-664.74	1072.2	261.44	-831.16	480.66	175.12	-838.95	24.681	84.066	-687.31	1549	-68.806	-769.52	674.65	206.6	-756.51	759.19	222.52	-1096.6	86.274	27.803	-811.22	1332.2	105.77	-816.04	488.61	20.403	-847.49	1009.6	18.207	-339.62	80.166	-57.871	-736.27	1453.4	-1.5607	-822.57	1000.7	-59.196	-796.53	1137.1	-10.067	-310.95	103.19	22.816	-686.44	1563.6	78.781	-365.98	35.223	4.1777	-832.85	1083.7	-212.97
244	1.22	-539.98	1634.5	48.361	-531.6	1627.2	-50.949	-535.83	1372.5	18.506	-469.48	1215.7	27.259	-556.55	952.29	-152.7	-608.91	966.41	215.21	-673.36	1457.4	173.27	-682.6	1292.1	296.24	-645.13	1157.8	362.28	-546.02	1048.1	371.35	-462.34	966.81	297.32	-473.57	960.44	378.67	-398.62	911.62	345.41	-634.64	1437.2	-175.57	-699.49	1275.7	-263.36	-751.78	1118.5	-308.83	-762.96	977.52	-317.95	-745.22	846.91	-253.45	-765.82	755.24	-277.12	-778.85	590.84	192.14	-706.49	666.53	200.08	-809.86	344.97	99.806	-878.15	276.11	141.59	-854.41	271.53	85.439	-554.31	741.4	-182.46	-482.43	588.48	-151.21	-469.49	692.77	-146.97	-519.8	665.49	-167.25	-469.87	506.44	-147.74	-360.7	422.46	-92.118	-363.87	323.68	-126.52	-333.48	344.26	-76.392	-170.84	104.69	-53.999	-131.79	124.26	-96.967	-792.02	838.95	-311.85	-220.76	60.012	-119.08	-312.45	260.61	-61.254	-898.41	198.87	70.503	-446.73	508.87	8.0902	-885.62	24.333	44.289	-990.27	98.396	-1.3327	-657.84	1071.8	260.75	-826.59	480.4	175.24	-838.9	24.657	84.078	-680.23	1547.9	-70.118	-764.14	674.13	206.65	-750.85	758.67	222.57	-1095.7	88.875	27.85	-804.18	1331.4	104.67	-810.57	488.02	20.605	-840.14	1008.6	17.775	-336.48	78.779	-56.953	-729.23	1452.3	-2.9075	-815.08	999.52	-59.393	-789.21	1135.9	-10.394	-307.94	101.15	24.048	-679.47	1562.6	77.502	-364.05	34.627	4.9376	-825.55	1082.1	-213.5
245	1.225	-533.05	1633.7	47	-524.59	1626.3	-52.309	-528.58	1371.6	17.49	-462.03	1215	26.663	-548.77	951.01	-152.67	-601.62	965.71	214.77	-666.39	1456.8	171.96	-675.65	1291.7	295.24	-638.28	1157.5	361.45	-539.08	1048	370.56	-455.24	966.93	296.5	-466.46	960.52	377.86	-391.4	911.93	344.59	-627.33	1435.8	-176.75	-692.11	1274.1	-264.15	-744.35	1116.8	-309.41	-755.5	975.78	-318.31	-737.72	845.3	-253.63	-758.36	753.58	-277.09	-773.57	590.36	192.26	-700.93	665.78	200.41	-806.05	344.37	100.11	-875.22	276.31	141.78	-851.43	271.44	85.723	-545.51	741.32	-182.04	-473.83	588.35	-150.85	-460.82	692.62	-146.4	-511.11	665.39	-166.78	-461.34	506.28	-147.6	-353.13	421.24	-91.144	-357.11	322.53	-125.66	-326.9	342.75	-75.257	-167.55	100.09	-52.139	-128.21	119.31	-94.515	-784.53	837.25	-312	-218.2	56.824	-117.56	-306.98	258.85	-60.022	-896.25	199.31	70.704	-439.32	508.26	8.2238	-885.57	24.326	44.346	-989.14	99.891	-1.1572	-651.03	1071.4	260.04	-821.78	480.15	175.39	-838.85	24.633	84.072	-673.12	1546.8	-71.461	-758.57	673.62	206.68	-745.04	758.16	222.59	-1094.7	91.678	27.945	-797.12	1330.6	103.57	-804.88	487.42	20.826	-832.74	1007.6	17.374	-333.56	77.522	-56.172	-722.16	1451.3	-4.2827	-807.58	998.45	-59.564	-781.87	1134.9	-10.678	-305.1	99.216	25.141	-672.48	1561.8	76.202	-362.37	34.248	5.5685	-818.18	1080.6	-214.07
246	1.23	-526.09	1633.1	45.601	-517.54	1625.5	-53.704	-521.29	1370.9	16.447	-454.54	1214.4	26.032	-541.01	949.82	-152.63	-594.24	965.04	214.28	-659.37	1456.4	170.65	-668.72	1291.5	294.22	-631.47	1157.3	360.59	-532.22	1048	369.75	-448.24	967.03	295.68	-459.47	960.59	377.05	-384.33	912.21	343.77	-620	1434.4	-177.96	-684.68	1272.5	-264.96	-736.82	1115.1	-310.03	-747.92	974.05	-318.69	-730.08	843.68	-253.85	-750.7	751.94	-277.13	-768.06	589.88	192.4	-695.17	665.06	200.71	-802.05	343.78	100.42	-872.1	276.56	142	-848.28	271.4	86.02	-536.77	741.37	-181.64	-465.26	588.34	-150.58	-452.2	692.58	-145.88	-502.48	665.4	-166.37	-452.87	506.25	-147.55	-345.63	420.13	-90.284	-350.43	321.5	-124.92	-320.4	341.34	-74.245	-164.43	95.405	-50.462	-124.83	114.21	-92.227	-776.91	835.54	-312.19	-215.88	53.617	-116.21	-301.62	257.18	-58.941	-893.94	199.82	70.924	-432.06	507.71	8.2644	-885.53	24.307	44.389	-987.91	101.51	-0.93883	-644.3	1071	259.31	-816.69	479.89	175.56	-838.82	24.607	84.047	-665.97	1545.7	-72.832	-752.82	673.11	206.71	-739.06	757.67	222.58	-1093.5	94.697	28.096	-790.03	1329.9	102.47	-798.95	486.81	21.071	-825.31	1006.7	17.006	-330.8	76.415	-55.539	-715.05	1450.4	-5.6813	-800.08	997.48	-59.714	-774.54	1133.9	-10.917	-302.4	97.428	26.08	-665.46	1561.1	74.88	-360.89	34.095	6.0618	-810.73	1079	-214.68
247	1.235	-519.09	1632.5	44.167	-510.46	1624.7	-55.131	-513.96	1370.2	15.38	-447	1213.9	25.369	-533.3	948.73	-152.61	-586.77	964.4	213.72	-652.3	1456	169.34	-661.8	1291.3	293.18	-624.71	1157.2	359.71	-525.44	1048	368.93	-441.34	967.12	294.85	-452.6	960.65	376.24	-377.39	912.44	342.96	-612.64	1433	-179.18	-677.2	1270.9	-265.78	-729.2	1113.4	-310.65	-740.23	972.32	-319.1	-722.29	842.08	-254.1	-742.83	750.32	-277.24	-762.3	589.39	192.55	-689.21	664.37	200.99	-797.83	343.21	100.74	-868.75	276.86	142.24	-844.94	271.41	86.332	-528.1	741.54	-181.29	-456.74	588.45	-150.41	-443.66	692.68	-145.41	-493.89	665.55	-166.05	-444.46	506.35	-147.61	-338.2	419.12	-89.555	-343.82	320.59	-124.31	-314	340.04	-73.37	-161.46	90.704	-48.98	-121.62	109.03	-90.129	-769.14	833.85	-312.41	-213.78	50.442	-115.05	-296.36	255.63	-58.021	-891.48	200.41	71.167	-424.93	507.26	8.2052	-885.5	24.278	44.415	-986.56	103.26	-0.67137	-637.66	1070.7	258.57	-811.33	479.62	175.77	-838.8	24.579	84.002	-658.78	1544.8	-74.228	-746.86	672.61	206.74	-732.91	757.18	222.55	-1092.2	97.941	28.308	-782.91	1329.3	101.38	-792.79	486.18	21.345	-817.85	1005.7	16.676	-328.2	75.472	-55.062	-707.89	1449.5	-7.0975	-792.59	996.63	-59.848	-767.22	1133	-11.109	-299.82	95.809	26.855	-658.4	1560.4	73.535	-359.55	34.162	6.4105	-803.2	1077.4	-215.31
248	1.24	-512.06	1632	42.698	-503.35	1624	-56.588	-506.59	1369.6	14.293	-439.42	1213.5	24.676	-525.62	947.76	-152.59	-579.22	963.79	213.12	-645.16	1455.7	168.02	-654.89	1291.2	292.13	-617.98	1157.1	358.81	-518.75	1048	368.1	-434.56	967.18	294.03	-445.85	960.7	375.42	-370.59	912.63	342.15	-605.28	1431.7	-180.42	-669.66	1269.4	-266.6	-721.47	1111.8	-311.3	-732.41	970.62	-319.53	-714.36	840.49	-254.39	-734.77	748.72	-277.42	-756.29	588.91	192.72	-683.01	663.72	201.23	-793.38	342.65	101.08	-865.18	277.21	142.51	-841.41	271.46	86.667	-519.53	741.86	-180.99	-448.26	588.71	-150.36	-435.19	692.92	-145.01	-485.36	665.83	-165.83	-436.09	506.59	-147.77	-330.84	418.22	-88.964	-337.3	319.82	-123.86	-307.68	338.86	-72.636	-158.65	86.044	-47.697	-118.58	103.83	-88.233	-761.23	832.16	-312.65	-211.88	47.347	-114.1	-291.19	254.21	-57.267	-888.85	201.09	71.441	-417.89	506.93	8.0437	-885.48	24.237	44.422	-985.07	105.16	-0.34813	-631.12	1070.5	257.82	-805.66	479.35	176.02	-838.8	24.546	83.937	-651.56	1543.9	-75.647	-740.68	672.11	206.77	-726.57	756.7	222.49	-1090.7	101.42	28.589	-775.77	1328.8	100.31	-786.38	485.54	21.657	-810.38	1004.8	16.39	-325.71	74.689	-54.74	-700.7	1448.7	-8.5244	-785.11	995.91	-59.97	-759.91	1132.3	-11.251	-297.34	94.369	27.463	-651.32	1559.8	72.166	-358.33	34.429	6.6116	-795.58	1075.8	-215.96
249	1.245	-505.01	1631.6	41.199	-496.22	1623.5	-58.072	-499.2	1369.2	13.188	-431.8	1213.2	23.957	-518	946.93	-152.58	-571.6	963.22	212.46	-637.97	1455.5	166.72	-647.99	1291.2	291.07	-611.3	1157.1	357.9	-512.13	1048.1	367.25	-427.9	967.22	293.21	-439.22	960.76	374.59	-363.94	912.78	341.34	-597.89	1430.4	-181.66	-662.06	1267.9	-267.43	-713.65	1110.2	-311.95	-724.48	968.95	-319.98	-706.28	838.93	-254.71	-726.5	747.16	-277.67	-750	588.41	192.91	-676.59	663.11	201.46	-788.69	342.12	101.44	-861.36	277.62	142.83	-837.66	271.57	87.032	-511.05	742.31	-180.77	-439.83	589.13	-150.44	-426.81	693.32	-144.7	-476.91	666.26	-165.74	-427.76	506.96	-148.05	-323.56	417.43	-88.511	-330.85	319.16	-123.55	-301.46	337.79	-72.044	-156.01	81.478	-46.601	-115.72	98.693	-86.537	-753.17	830.5	-312.93	-210.15	44.372	-113.35	-286.14	252.91	-56.673	-886.02	201.85	71.753	-410.9	506.75	7.782	-885.46	24.187	44.407	-983.42	107.2	0.037787	-624.67	1070.4	257.05	-799.68	479.08	176.33	-838.81	24.507	83.85	-644.3	1543.1	-77.084	-734.27	671.62	206.81	-720.04	756.23	222.41	-1089	105.14	28.943	-768.6	1328.4	99.261	-779.72	484.9	22.014	-802.89	1004	16.153	-323.35	74.055	-54.566	-693.46	1448.1	-9.9542	-777.63	995.32	-60.083	-752.61	1131.7	-11.341	-294.98	93.11	27.908	-644.2	1559.4	70.772	-357.2	34.865	6.6694	-787.86	1074.2	-216.62
250	1.25	-497.92	1631.3	39.671	-489.07	1623	-59.579	-491.78	1368.8	12.071	-424.16	1213	23.214	-510.41	946.24	-152.6	-563.91	962.69	211.75	-630.7	1455.4	165.43	-641.1	1291.3	290	-604.67	1157.2	356.96	-505.61	1048.2	366.39	-421.35	967.24	292.38	-432.72	960.81	373.77	-357.44	912.88	340.55	-590.5	1429.3	-182.91	-654.41	1266.4	-268.24	-705.73	1108.6	-312.61	-716.44	967.31	-320.44	-698.06	837.4	-255.06	-718.03	745.65	-277.98	-743.44	587.92	193.15	-669.92	662.53	201.66	-783.75	341.61	101.84	-857.28	278.09	143.21	-833.69	271.74	87.438	-502.68	742.9	-180.66	-431.45	589.69	-150.64	-418.53	693.88	-144.49	-468.53	666.83	-165.77	-419.48	507.45	-148.44	-316.36	416.73	-88.191	-324.51	318.62	-123.38	-295.34	336.81	-71.584	-153.54	77.049	-45.672	-113.03	93.659	-85.027	-744.97	828.87	-313.24	-208.59	41.555	-112.8	-281.2	251.72	-56.228	-883	202.71	72.114	-403.91	506.75	7.4269	-885.44	24.131	44.367	-981.6	109.39	0.49347	-618.31	1070.4	256.26	-793.36	478.79	176.71	-838.84	24.459	83.741	-637.02	1542.4	-78.534	-727.63	671.13	206.86	-713.32	755.78	222.31	-1087.1	109.11	29.375	-761.4	1328.2	98.246	-772.8	484.23	22.43	-795.41	1003.2	15.974	-321.11	73.555	-54.525	-686.17	1447.5	-11.378	-770.16	994.86	-60.19	-745.34	1131.2	-11.379	-292.75	92.023	28.208	-637.04	1559	69.355	-356.15	35.436	6.5963	-780.05	1072.6	-217.3
251	1.255	-490.81	1631.1	38.119	-481.89	1622.6	-61.105	-484.34	1368.5	10.943	-416.5	1212.8	22.451	-502.86	945.71	-152.63	-556.16	962.21	210.99	-623.36	1455.4	164.15	-634.21	1291.5	288.94	-598.09	1157.4	356.02	-499.17	1048.3	365.52	-414.92	967.25	291.57	-426.36	960.85	372.94	-351.09	912.94	339.76	-583.11	1428.2	-184.15	-646.7	1265	-269.05	-697.71	1107	-313.27	-708.27	965.73	-320.92	-689.7	835.92	-255.44	-709.37	744.18	-278.36	-736.58	587.42	193.43	-663	662.01	201.84	-778.54	341.14	102.29	-852.92	278.63	143.65	-829.48	271.97	87.897	-494.43	743.6	-180.65	-423.14	590.38	-150.97	-410.36	694.57	-144.38	-460.23	667.52	-165.93	-411.27	508.03	-148.94	-309.27	416.1	-87.994	-318.27	318.15	-123.33	-289.36	335.91	-71.244	-151.26	72.789	-44.88	-110.53	88.772	-83.681	-736.62	827.28	-313.58	-207.19	38.925	-112.43	-276.39	250.63	-55.911	-879.74	203.66	72.533	-396.89	506.91	6.9894	-885.43	24.072	44.299	-979.57	111.73	1.0264	-612.04	1070.4	255.45	-786.7	478.5	177.18	-838.89	24.399	83.607	-629.71	1541.8	-79.994	-720.75	670.65	206.94	-706.41	755.33	222.2	-1084.8	113.34	29.887	-754.18	1328.1	97.272	-765.6	483.56	22.915	-787.93	1002.4	15.855	-318.98	73.17	-54.592	-678.84	1447.1	-12.786	-762.7	994.53	-60.295	-738.08	1130.8	-11.365	-290.65	91.095	28.384	-629.85	1558.8	67.918	-355.17	36.106	6.4114	-772.14	1071.1	-217.99
